<svg xmlns="http://www.w3.org/2000/svg" xmlns:xlink="http://www.w3.org/1999/xlink" width="32" height="32" viewBox="0 0 32 32">
  <defs>
    <clipPath id="clip-path">
      <rect id="사각형_212" data-name="사각형 212" width="25.787" height="27.384" fill="#f22525"/>
    </clipPath>
  </defs>
  <g id="그룹_872" data-name="그룹 872" transform="translate(-1554.243 -1021.243)">
    <rect id="사각형_214" data-name="사각형 214" width="32" height="32" transform="translate(1554.243 1021.243)" fill="#ffb7b7" opacity="0"/>
    <g id="그룹_871" data-name="그룹 871" transform="translate(1556.773 1023.773)">
      <g id="그룹_856" data-name="그룹 856" clip-path="url(#clip-path)">
        <path id="패스_112" data-name="패스 112" d="M21.346,6.807H18.062a6.949,6.949,0,0,0,1.622-1.039A3.454,3.454,0,0,0,19.9.9a3.455,3.455,0,0,0-4.865.215,15.089,15.089,0,0,0-2.141,4.089,15.234,15.234,0,0,0-2.14-4.089A3.455,3.455,0,0,0,5.885.9,3.459,3.459,0,0,0,6.1,5.769a6.962,6.962,0,0,0,1.62,1.038H4.441A4.446,4.446,0,0,0,0,11.247v3.784a.9.9,0,0,0,.9.9H2.1V23.7a3.692,3.692,0,0,0,3.688,3.688h14.2A3.692,3.692,0,0,0,23.682,23.7V15.927h1.21a.9.9,0,0,0,.9-.9V11.247a4.446,4.446,0,0,0-4.441-4.441M16.3,2.383a1.96,1.96,0,0,1,1.363-.6,1.349,1.349,0,0,1,.97.382A1.672,1.672,0,0,1,18.419,4.5a17.607,17.607,0,0,1-4.108,1.99A17.485,17.485,0,0,1,16.3,2.383M7.152,2.168a1.35,1.35,0,0,1,.97-.382,1.96,1.96,0,0,1,1.363.6,16.583,16.583,0,0,1,1.99,4.107A18,18,0,0,1,7.367,4.5a1.676,1.676,0,0,1-.215-2.333M3.9,23.7V15.927H9.726v9.666H5.793a1.9,1.9,0,0,1-1.9-1.9m10.374,1.9H11.517V15.927H14.27Zm7.621-1.9a1.9,1.9,0,0,1-1.9,1.9H16.061V15.927h5.83Zm2.1-9.56H1.791V11.247A2.653,2.653,0,0,1,4.441,8.6h4.9a11.257,11.257,0,0,0-3.669,2.833.9.9,0,0,0,1.449,1.053c1.123-1.544,4.377-3.019,5.774-3.553,1.4.533,4.649,2.005,5.774,3.553a.9.9,0,1,0,1.449-1.053A11.255,11.255,0,0,0,16.447,8.6h4.9A2.653,2.653,0,0,1,24,11.247Z" transform="translate(0 0)" fill="#f22525"/>
      </g>
    </g>
  </g>
</svg>
