<svg xmlns="http://www.w3.org/2000/svg" width="40" height="40" viewBox="0 0 40 40">
  <defs>
    <style>
      .cls-1 {
        fill: #ffb7b7;
        opacity: 0;
      }

      .cls-2 {
        fill: #444;
      }
    </style>
  </defs>
  <g id="그룹_819" data-name="그룹 819" transform="translate(375.348 -9740.565)">
    <rect id="사각형_200" data-name="사각형 200" class="cls-1" width="40" height="40" transform="translate(-375.348 9740.565)"/>
    <path id="favorite_24dp_5F6368_FILL1_wght400_GRAD0_opsz24" class="cls-2" d="M92.677-829.237a1.5,1.5,0,0,1-1-.383l-1.838-1.648c-2.147-1.934-3.947-3.627-5.352-5.032a36.688,36.688,0,0,1-3.471-3.922,13.46,13.46,0,0,1-1.938-3.454,10.062,10.062,0,0,1-.576-3.351,8.233,8.233,0,0,1,2.436-6.037,8.233,8.233,0,0,1,6.037-2.436,8.838,8.838,0,0,1,3.774.839,9.012,9.012,0,0,1,1.931,1.222,9.011,9.011,0,0,1,1.931-1.222,8.837,8.837,0,0,1,3.774-.839,8.233,8.233,0,0,1,6.037,2.436,8.233,8.233,0,0,1,2.436,6.037,10.062,10.062,0,0,1-.576,3.351,13.461,13.461,0,0,1-1.938,3.454,36.685,36.685,0,0,1-3.471,3.922c-1.405,1.405-3.2,3.1-5.349,5.029l-1.841,1.651A1.5,1.5,0,0,1,92.677-829.237Zm-5.7-23.263a5.264,5.264,0,0,0-3.915,1.557,5.264,5.264,0,0,0-1.557,3.915,7.069,7.069,0,0,0,.406,2.354,10.535,10.535,0,0,0,1.517,2.662,33.757,33.757,0,0,0,3.184,3.589c1.369,1.369,3.13,3.025,5.236,4.922l.834.748.837-.75c2.1-1.9,3.865-3.551,5.234-4.92a33.75,33.75,0,0,0,3.184-3.59,10.534,10.534,0,0,0,1.517-2.662,7.07,7.07,0,0,0,.406-2.354,5.264,5.264,0,0,0-1.557-3.915,5.264,5.264,0,0,0-3.915-1.557,5.779,5.779,0,0,0-2.5.556,5.981,5.981,0,0,0-2.06,1.578,1.5,1.5,0,0,1-1.143.529,1.5,1.5,0,0,1-1.143-.529,5.982,5.982,0,0,0-2.06-1.578A5.78,5.78,0,0,0,86.973-852.5Z" transform="translate(-448.131 10603.967)"/>
  </g>
</svg>
