<?xml version="1.0" encoding="UTF-8"?>
<svg xmlns="http://www.w3.org/2000/svg" version="1.1" viewBox="0 0 316 46">
  <defs>
    <style>
      .cls-1 {
        fill: #fff;
      }
    </style>
  </defs>
  <!-- Generator: Adobe Illustrator 28.7.3, SVG Export Plug-In . SVG Version: 1.2.0 Build 164)  -->
  <g>
    <g id="_레이어_1" data-name="레이어_1">
      <g>
        <rect class="cls-1" x=".3" y=".7" width="7.5" height="44.6"/>
        <path class="cls-1" d="M27.7,38.6V.7h-7.5v41.1c0,2,1.6,3.5,3.5,3.5h19.1c1.5,0,2.8-.7,3.6-2l2.9-4.5h-21.4c-.1,0-.2,0-.2-.2Z"/>
        <path class="cls-1" d="M63.3,38.6V.7h-7.5v41.1c0,2,1.6,3.5,3.5,3.5h19.1c1.5,0,2.8-.7,3.6-2l2.9-4.5h-21.4c0,0-.2,0-.2-.2Z"/>
        <rect class="cls-1" x="93.3" y=".7" width="7.5" height="44.6"/>
        <path class="cls-1" d="M169.1,0c-5.8,0-11.1,2.3-14.9,6.4-3.8,4.2-5.9,10.1-5.9,16.6s2.1,12.4,5.9,16.6c3.7,4.1,9,6.4,14.9,6.4s11.1-2.3,14.9-6.4c3.8-4.2,5.9-10.1,5.9-16.6s-2.1-12.4-5.9-16.6C180.2,2.3,175,0,169.1,0ZM169.1,39.4c-7.9,0-13.2-6.6-13.2-16.4s5.3-16.4,13.2-16.4,13.2,6.6,13.2,16.4-5.3,16.4-13.2,16.4Z"/>
        <path class="cls-1" d="M216.6,0c-5.8,0-11.1,2.3-14.9,6.4-3.8,4.2-5.9,10.1-5.9,16.6s2.1,12.4,5.9,16.6c3.8,4.1,9,6.4,14.9,6.4s11.1-2.3,14.9-6.4c3.8-4.2,5.9-10.1,5.9-16.6s-2.1-12.4-5.9-16.6C227.7,2.3,222.5,0,216.6,0ZM216.6,39.4c-7.9,0-13.2-6.6-13.2-16.4s5.3-16.4,13.2-16.4,13.2,6.6,13.2,16.4-5.3,16.4-13.2,16.4Z"/>
        <path class="cls-1" d="M274.9.7v32.3l-20.3-30.3c-.8-1.2-2.2-1.9-3.6-1.9h-5.5v44.6h7.2V11.5l21.5,31.9c.8,1.2,2.2,1.9,3.6,1.9h4.3V.7h-7.2,0Z"/>
        <path class="cls-1" d="M312.7.7h-16.4c-1.7,0-3,1.3-3,3v38.5c0,1.7,1.3,3,3,3h16.4c1.7,0,3-1.3,3-3V3.7c0-1.7-1.3-3-3-3ZM312.7,40.7h-15.8v-2.7h15.8v2.7ZM312.7,27.4h-13.5v7.6l-1.6-1c-.4-.3-.7-.8-.7-1.3v-6.7c0-.7.6-1.3,1.3-1.3h14.5v2.7ZM312.7,14.9h-13.5v7.6l-1.6-1c-.4-.3-.7-.8-.7-1.3v-6.7c0-.7.6-1.3,1.3-1.3h14.5v2.7ZM313.2,7.8h-15.8v-2.7h15.8v2.7Z"/>
        <polygon class="cls-1" points="123.5 45.3 123.5 26 107.2 .6 115.3 .6 127.3 18.8 139.2 .6 147.3 .6 131 26 131 45.3 123.5 45.3"/>
      </g>
    </g>
  </g>
</svg>