<svg xmlns="http://www.w3.org/2000/svg" xmlns:xlink="http://www.w3.org/1999/xlink" width="84" height="84" viewBox="0 0 84 84">
  <defs>
    <clipPath id="clip-path">
      <rect id="사각형_266" data-name="사각형 266" width="84" height="84" transform="translate(-0.137 -0.137)" fill="none"/>
    </clipPath>
  </defs>
  <g id="그룹_1088" data-name="그룹 1088" transform="translate(0.137 0.137)">
    <g id="그룹_1087" data-name="그룹 1087" clip-path="url(#clip-path)">
      <path id="패스_140" data-name="패스 140" d="M8.834,50.766a2.479,2.479,0,1,1,2.48-2.478,2.481,2.481,0,0,1-2.48,2.478m0-3.524a1.045,1.045,0,1,0,1.044,1.045,1.047,1.047,0,0,0-1.044-1.045" transform="translate(1.246 8.983)" fill="#494949"/>
      <path id="패스_141" data-name="패스 141" d="M22.9,38.4l-1.463,1.323-.627,1.6V52.747l.975,2.3,2.647.905H42.779L39.193,38.332Z" transform="translate(4.08 7.517)" fill="#aad7f4"/>
      <rect id="사각형_264" data-name="사각형 264" width="20.494" height="2.515" transform="translate(24.47 56.213)" fill="#fff"/>
      <path id="패스_142" data-name="패스 142" d="M21.689,12.569H38.355l-.536,4.477-2.407.085v3.621l.2,2.31H22.946Z" transform="translate(4.253 2.465)" fill="#aad7f4"/>
      <path id="패스_143" data-name="패스 143" d="M38.65,69.834H23.837a8.386,8.386,0,0,1-8.376-8.376V35.682a13.45,13.45,0,0,1,3.369-8.909l6.33-5.906a.715.715,0,0,1,.489-.194H36.838a.718.718,0,0,1,0,1.435H25.932l-6.074,5.665A12,12,0,0,0,16.9,35.682V61.457A6.949,6.949,0,0,0,23.837,68.4H38.65a6.885,6.885,0,0,0,4.069-1.318.717.717,0,1,1,.842,1.161,8.315,8.315,0,0,1-4.911,1.591" transform="translate(3.032 4.054)" fill="#494949"/>
      <path id="패스_144" data-name="패스 144" d="M35.734,23.9H23.064a.717.717,0,0,1-.712-.632L21.094,12.772a.716.716,0,0,1,.713-.8H38.473a.716.716,0,0,1,.713.8l-.536,4.477a.718.718,0,0,1-1.426-.17l.44-3.674H22.615L23.7,22.461H35.734a.717.717,0,1,1,0,1.434" transform="translate(4.135 2.347)" fill="#494949"/>
      <path id="패스_145" data-name="패스 145" d="M37.054,13.814a.716.716,0,0,1-.716-.718V9.736H23.545V13.1a.718.718,0,0,1-1.437,0V9.018a.716.716,0,0,1,.718-.716H37.054a.716.716,0,0,1,.718.716V13.1a.717.717,0,0,1-.718.718" transform="translate(4.335 1.628)" fill="#494949"/>
      <path id="패스_146" data-name="패스 146" d="M25.9,9.731H17.858a.717.717,0,1,1,0-1.434H25.9a.717.717,0,1,1,0,1.434" transform="translate(3.361 1.627)" fill="#494949"/>
      <path id="패스_147" data-name="패스 147" d="M42.5,56.786H23.731a4.048,4.048,0,0,1-4.043-4.044V41.776a4.048,4.048,0,0,1,4.043-4.044H39.413a.718.718,0,0,1,0,1.435H23.731a2.611,2.611,0,0,0-2.607,2.609V52.742a2.612,2.612,0,0,0,2.607,2.61H42.5a.717.717,0,1,1,0,1.434" transform="translate(3.861 7.399)" fill="#494949"/>
      <path id="패스_148" data-name="패스 148" d="M19.412,18.088A3.514,3.514,0,1,1,15.9,14.574a3.514,3.514,0,0,1,3.514,3.514" transform="translate(2.428 2.858)" fill="#aad7f4"/>
      <path id="패스_149" data-name="패스 149" d="M16.016,22.436a4.231,4.231,0,1,1,4.232-4.231,4.236,4.236,0,0,1-4.232,4.231m0-7.028a2.8,2.8,0,1,0,2.8,2.8,2.8,2.8,0,0,0-2.8-2.8" transform="translate(2.311 2.74)" fill="#494949"/>
      <path id="패스_150" data-name="패스 150" d="M13.669,24.494A1.591,1.591,0,1,1,12.078,22.9a1.591,1.591,0,0,1,1.591,1.591" transform="translate(2.056 4.491)" fill="#aad7f4"/>
      <path id="패스_151" data-name="패스 151" d="M12.2,26.919A2.308,2.308,0,1,1,14.5,24.61,2.312,2.312,0,0,1,12.2,26.919m0-3.182a.874.874,0,1,0,.873.873.874.874,0,0,0-.873-.873" transform="translate(1.939 4.373)" fill="#494949"/>
      <path id="패스_152" data-name="패스 152" d="M36.376,33.678l23.58.1v1.81L59.18,39l-.1,1.538-.262,2.61-.789,6.837-19.051-.01Z" transform="translate(7.133 6.604)" fill="#d6d6d6"/>
      <rect id="사각형_265" data-name="사각형 265" width="20.777" height="2.515" transform="translate(44.729 49.98)" fill="#d40a32"/>
      <path id="패스_153" data-name="패스 153" d="M63.569,21.15a.717.717,0,0,1-.718-.718v-2.9H34.481v2.9a.718.718,0,1,1-1.435,0V16.812a.718.718,0,0,1,.718-.718H63.569a.717.717,0,0,1,.718.718v3.621a.717.717,0,0,1-.718.718" transform="translate(6.48 3.156)" fill="#494949"/>
      <path id="패스_154" data-name="패스 154" d="M57.282,60.043H40.051a.716.716,0,0,1-.708-.605L33.056,19.8a.715.715,0,0,1,.708-.83h29.8a.718.718,0,0,1,.71.83L57.99,59.438a.717.717,0,0,1-.708.605M40.665,58.609h16L62.729,20.4H34.6Z" transform="translate(6.48 3.719)" fill="#494949"/>
      <path id="패스_155" data-name="패스 155" d="M53.7,64.027H41.429a2.777,2.777,0,0,1-2.775-2.773V52.9a.718.718,0,0,1,1.437,0v8.36a1.34,1.34,0,0,0,1.338,1.338H53.7a.717.717,0,1,1,0,1.434" transform="translate(7.58 10.232)" fill="#494949"/>
      <path id="패스_156" data-name="패스 156" d="M53.074,58.6a.717.717,0,0,1-.718-.718V52.9a.718.718,0,0,1,1.435,0v4.989a.717.717,0,0,1-.718.718" transform="translate(10.267 10.232)" fill="#494949"/>
      <path id="패스_157" data-name="패스 157" d="M60.181,34.86h-23.7a.717.717,0,1,1,0-1.434h23.7a.717.717,0,1,1,0,1.434" transform="translate(7.013 6.555)" fill="#494949"/>
      <path id="패스_158" data-name="패스 158" d="M57.264,48.366H38.579a.717.717,0,1,1,0-1.434H57.264a.717.717,0,1,1,0,1.434" transform="translate(7.424 9.203)" fill="#494949"/>
      <path id="패스_159" data-name="패스 159" d="M49.628,62.413a.717.717,0,0,1-.718-.718,2.207,2.207,0,0,0-4.415,0,.718.718,0,1,1-1.435,0,3.643,3.643,0,0,1,7.285,0,.717.717,0,0,1-.718.718" transform="translate(8.444 11.384)" fill="#494949"/>
      <path id="패스_160" data-name="패스 160" d="M12.453,60.548a4.139,4.139,0,0,1-.864,2.519c.061.051.124.1.188.151h8.681A7.011,7.011,0,1,0,9.218,56.483a4.177,4.177,0,0,1,3.235,4.064" transform="translate(1.808 9.942)" fill="#aad7f4"/>
      <path id="패스_161" data-name="패스 161" d="M20.577,64.052H11.894a.717.717,0,0,1-.446-.155l-.2-.161a.72.72,0,0,1-.11-.986A3.434,3.434,0,0,0,9.173,57.3a.717.717,0,0,1-.544-.824A7.729,7.729,0,1,1,21.022,63.9a.715.715,0,0,1-.445.154m-7.7-1.434h7.448a6.294,6.294,0,1,0-10.139-6.5,4.867,4.867,0,0,1,3.107,4.551,4.786,4.786,0,0,1-.416,1.953" transform="translate(1.69 9.824)" fill="#494949"/>
      <path id="패스_162" data-name="패스 162" d="M12.423,63.123H6.038a.712.712,0,0,1-.55-.257,4.824,4.824,0,0,1-1.157-3.13,4.9,4.9,0,0,1,4.9-4.9,4.879,4.879,0,0,1,3.889,7.852L13,62.831a.83.83,0,0,1-.581.292m0-.925.124.057-.124-.094Zm-6.032-.51h5.681a3.431,3.431,0,0,0-2.058-5.318h0a3.428,3.428,0,0,0-.782-.1,3.466,3.466,0,0,0-3.463,3.463,3.382,3.382,0,0,0,.623,1.953" transform="translate(0.849 10.753)" fill="#494949"/>
      <path id="패스_163" data-name="패스 163" d="M20.767,58.2a2.188,2.188,0,0,0-2.707,2.146,2.185,2.185,0,0,0,.521,1.41h3.372c.023-.026.045-.053.066-.08A2.192,2.192,0,0,0,20.767,58.2" transform="translate(3.541 11.401)" fill="#fff"/>
      <path id="패스_164" data-name="패스 164" d="M22.071,62.593H18.7a.718.718,0,0,1-.55-.256,2.924,2.924,0,1,1,4.56-.106c-.006.007-.078.1-.084.1a.713.713,0,0,1-.554.261m-3-1.434h2.617a1.406,1.406,0,0,0,.184-.693,1.478,1.478,0,0,0-1.152-1.446h0a1.52,1.52,0,0,0-.336-.044,1.492,1.492,0,0,0-1.49,1.49,1.432,1.432,0,0,0,.178.693" transform="translate(3.424 11.284)" fill="#494949"/>
      <path id="패스_165" data-name="패스 165" d="M63.343,59.174a.718.718,0,0,1-.24-1.395,2.357,2.357,0,0,0,1.553-1.319A2.794,2.794,0,0,0,63.99,54.1c-.921-1.294-4.208-2.6-6.257-3.274A3.879,3.879,0,0,1,56.07,54.03c-2.361,1.738-2.506,2.429-1.73,3.5a.717.717,0,1,1-1.163.841c-1.887-2.61.478-4.35,2.043-5.5a2.422,2.422,0,0,0,.947-2.82.721.721,0,0,1,.866-.947c.663.188,6.526,1.905,8.126,4.164a4.048,4.048,0,0,1,.865,3.624,3.585,3.585,0,0,1-2.441,2.239.737.737,0,0,1-.24.042" transform="translate(10.291 9.624)" fill="#494949"/>
      <path id="패스_166" data-name="패스 166" d="M51.265,63.579a.715.715,0,0,1-.658-.432,4.964,4.964,0,0,1,.27-4.113c1.111-2.041,3.655-3.405,7.563-4.057a.718.718,0,0,1,.236,1.416c-3.385.563-5.643,1.707-6.527,3.306a3.509,3.509,0,0,0-.352,2.444l16.357-.055c.231-.977.4-3.384-2.855-5.01a.718.718,0,0,1,.642-1.285c5.317,2.659,3.418,7.248,3.4,7.295a.715.715,0,0,1-.657.434l-17.415.057ZM68.68,62.8h0Z" transform="translate(9.86 10.779)" fill="#494949"/>
    </g>
  </g>
</svg>
