<?xml version="1.0" encoding="UTF-8"?>
<svg xmlns="http://www.w3.org/2000/svg" version="1.1" viewBox="0 0 24 24">
  <defs>
    <style>
      .cls-1 {
        fill: #111;
      }
    </style>
  </defs>
  <!-- Generator: Adobe Illustrator 28.7.2, SVG Export Plug-In . SVG Version: 1.2.0 Build 154)  -->
  <g>
    <g id="_레이어_1" data-name="레이어_1">
      <path class="cls-1" d="M4.8,20c-.2,0-.4,0-.5-.2-.3-.3-.3-.8,0-1.1l14.4-14.4c.3-.3.8-.3,1.1,0s.3.8,0,1.1l-14.4,14.4c-.1.1-.3.2-.5.2Z"/>
      <path class="cls-1" d="M19.2,19.9c-.2,0-.4,0-.5-.2L4.3,5.3c-.3-.3-.3-.8,0-1.1s.8-.3,1.1,0l14.4,14.4c.3.3.3.8,0,1.1s-.3.2-.5.2Z"/>
    </g>
  </g>
</svg>