<svg xmlns="http://www.w3.org/2000/svg" xmlns:xlink="http://www.w3.org/1999/xlink" width="69" height="69" viewBox="0 0 69 69">
  <defs>
    <clipPath id="clip-path">
      <rect id="사각형_401" data-name="사각형 401" width="35.63" height="33.651" fill="#38a1f9"/>
    </clipPath>
  </defs>
  <g id="그룹_1257" data-name="그룹 1257" transform="translate(-1599 -323)">
    <rect id="사각형_397" data-name="사각형 397" width="69" height="69" transform="translate(1599 323)" fill="#ff8b8b" opacity="0"/>
    <g id="그룹_1255" data-name="그룹 1255" transform="translate(557.25 -167.825)">
      <g id="그룹_1254" data-name="그룹 1254" transform="translate(1066.909 509)">
        <g id="그룹_1253" data-name="그룹 1253" transform="translate(0)" clip-path="url(#clip-path)">
          <path id="패스_297" data-name="패스 297" d="M43.9,1.18,47.74,8.934a1.984,1.984,0,0,0,1.493,1.081L58.107,11.3a1.977,1.977,0,0,1,1.1,3.376L52.789,20.9a1.977,1.977,0,0,0-.571,1.754l1.467,8.519A2.12,2.12,0,0,1,50.61,33.4l-7.7-4.028a1.987,1.987,0,0,0-1.843,0L33.38,33.4a2.123,2.123,0,0,1-3.08-2.236l1.467-8.512a1.977,1.977,0,0,0-.571-1.754l-6.415-6.225a1.977,1.977,0,0,1,1.1-3.376l8.873-1.284a1.984,1.984,0,0,0,1.493-1.081L40.087,1.18a2.127,2.127,0,0,1,3.809,0" transform="translate(-24.177)" fill="#8ec9f0"/>
        </g>
      </g>
      <path id="패스_298" data-name="패스 298" d="M13.32,33.249H2.1a2.1,2.1,0,0,1,0-4.206H13.32a2.1,2.1,0,0,1,0,4.206M9.815,17.124a2.1,2.1,0,0,0-2.1-2.1H2.1a2.1,2.1,0,1,0,0,4.206H7.712a2.1,2.1,0,0,0,2.1-2.1M15.423,3.1A2.1,2.1,0,0,0,13.32,1H2.1a2.1,2.1,0,1,0,0,4.206H13.32a2.1,2.1,0,0,0,2.1-2.1" transform="translate(1049.96 508.701)" fill="#616a7e"/>
      <rect id="사각형_402" data-name="사각형 402" width="53" height="34" transform="translate(1049.75 508.825)" fill="none"/>
    </g>
  </g>
</svg>
