<svg xmlns="http://www.w3.org/2000/svg" xmlns:xlink="http://www.w3.org/1999/xlink" width="69" height="69" viewBox="0 0 69 69">
  <defs>
    <clipPath id="clip-path">
      <rect id="사각형_398" data-name="사각형 398" width="43.28" height="43.28" fill="#38a1f9"/>
    </clipPath>
  </defs>
  <g id="그룹_1258" data-name="그룹 1258" transform="translate(-1225 -323)">
    <rect id="사각형_393" data-name="사각형 393" width="69" height="69" transform="translate(1225 323)" fill="#ff8b8b" opacity="0"/>
    <g id="그룹_1256" data-name="그룹 1256" transform="translate(9.435 -153.155)">
      <g id="그룹_1248" data-name="그룹 1248" transform="translate(1222 489.001)">
        <g id="그룹_1247" data-name="그룹 1247" transform="translate(0 0)">
          <g id="그룹_1246" data-name="그룹 1246" clip-path="url(#clip-path)">
            <path id="패스_294" data-name="패스 294" d="M19.375,43.777,2.062,26.446A7.048,7.048,0,0,1,0,21.465V7.656a4.7,4.7,0,0,1,4.693-4.7H18.487a7.034,7.034,0,0,1,4.977,2.063L40.777,22.353c3.394,3.4,3.28,6.68,0,9.963L29.328,43.777c-3.28,3.283-6.673,3.283-9.953,0" transform="translate(0 -2.959)" fill="#8ec9f0"/>
          </g>
        </g>
      </g>
      <path id="패스_295" data-name="패스 295" d="M48.452,47.31a2.029,2.029,0,0,1,0-4.058A5.158,5.158,0,0,0,51.981,41.4l11.454-11.48a5.328,5.328,0,0,0,1.923-3.527,5.366,5.366,0,0,0-1.921-3.56L46.125,5.491a4.871,4.871,0,0,0-3.186-1.438A2.026,2.026,0,0,1,41.045,1.9,2.1,2.1,0,0,1,43.2,0a8.906,8.906,0,0,1,5.812,2.634l17.3,17.325c2.069,2.067,3.115,4.232,3.109,6.435s-1.052,4.347-3.114,6.393L54.865,44.253a8.986,8.986,0,0,1-6.414,3.057" transform="translate(1208.713 487)" fill="#616a7e"/>
      <path id="패스_296" data-name="패스 296" d="M12.912,18.569a2.705,2.705,0,0,1-.026-5.41h.026a2.705,2.705,0,0,1,0,5.41" transform="translate(1218.698 482.74)" fill="#616a7e"/>
    </g>
  </g>
</svg>
