<?xml version="1.0" encoding="UTF-8"?>
<svg xmlns="http://www.w3.org/2000/svg" version="1.1" viewBox="0 0 200 33">
  <defs>
    <style>
      .cls-1 {
        fill: #111;
      }

      .cls-2 {
        fill: #e9eff5;
      }

      .cls-3 {
        isolation: isolate;
      }
    </style>
  </defs>
  <!-- Generator: Adobe Illustrator 28.7.3, SVG Export Plug-In . SVG Version: 1.2.0 Build 164)  -->
  <g>
    <g id="_레이어_1" data-name="레이어_1">
      <g>
        <path class="cls-2" d="M187,0H13C5.8,0,0,5.8,0,13s5.8,13,13,13h83l4,7,4-7h83c7.2,0,13-5.8,13-13s-5.8-13-13-13Z"/>
        <g id="_로그인_후_다양한_혜택을_받아보세요_" data-name="로그인_후_다양한_혜택을_받아보세요_" class="cls-3">
          <g class="cls-3">
            <path class="cls-1" d="M27.6,16.7h-9.6v-.9h4.2v-1.8h-3.1v-3.3h6.2v-1.5h-6.2v-.9h7.3v3.3h-6.2v1.5h6.4v.9h-3.4v1.8h4.3v.9Z"/>
            <path class="cls-1" d="M37.6,16.5h-9.6v-.9h9.6v.9ZM36.3,9.7c0,1.4,0,2.8-.4,5.1h-1.1c.4-2.2.4-3.8.4-5.1v-.2h-6.2v-.9h7.3v1.1Z"/>
            <path class="cls-1" d="M43.9,10.8c0,1.5-1.2,2.6-2.8,2.6s-2.8-1.1-2.8-2.6,1.2-2.6,2.8-2.6,2.8,1.1,2.8,2.6ZM39.4,10.8c0,1,.7,1.6,1.7,1.6s1.7-.7,1.7-1.6-.7-1.6-1.7-1.6-1.7.7-1.7,1.6ZM47.1,17.8h-7.2v-3.4h1.1v2.5h6.1v.9ZM46.8,15.1h-1.1v-7.6h1.1v7.6Z"/>
            <path class="cls-1" d="M60.4,15.2h-4.3v2.8h-1.1v-2.8h-4.2v-.9h9.6v.9ZM59.8,9.6h-8.5v-.9h3.7v-1.2h1.1v1.2h3.7v.9ZM59.1,11.9c0,1.1-1.3,1.7-3.5,1.8-2.2,0-3.5-.6-3.5-1.8,0-1.1,1.3-1.8,3.5-1.8s3.5.6,3.5,1.8ZM53.2,11.9c0,.6.8.9,2.3.9s2.3-.3,2.3-.9c0-.6-.8-.9-2.3-.9s-2.3.3-2.3.9Z"/>
            <path class="cls-1" d="M68.9,9.4h-3.8v5.1c1.8,0,3.1,0,4.6-.4v.9c-1.5.3-2.9.4-4.9.3h-.8v-6.9h4.9v.9ZM71.7,11.6h1.7v.9h-1.7v5.5h-1.1V7.5h1.1v4.1Z"/>
            <path class="cls-1" d="M79.3,10.6c0,1.5-1.2,2.5-2.8,2.5-1.6,0-2.8-1-2.8-2.5,0-1.5,1.2-2.5,2.8-2.5s2.8,1,2.8,2.5ZM74.8,10.6c0,.9.7,1.5,1.7,1.6,1,0,1.7-.6,1.7-1.6s-.7-1.6-1.7-1.6-1.7.6-1.7,1.6ZM81.9,16c0,1.3-1.3,2-3.5,2-2.2,0-3.5-.7-3.5-2s1.4-2,3.5-2,3.5.7,3.5,2ZM76,16c0,.7.9,1.1,2.4,1.1s2.4-.4,2.4-1.1-.9-1.1-2.4-1.1-2.4.4-2.4,1.1ZM83.3,9.9h-1.5v1.3h1.5v.9h-1.5v1.5h-1.1v-6.2h1.1v1.5h1.5v.9Z"/>
            <path class="cls-1" d="M89.9,9.6h-6.3v-.9h2.6v-1.2h1.1v1.2h2.6v.9ZM89.3,12.1c0,1.2-1,2-2.5,2s-2.6-.8-2.6-2,1-2,2.6-2,2.5.8,2.5,2ZM92.3,17.8h-7.1v-3h1.1v2.1h6v.9ZM85.3,12.1c0,.7.6,1.1,1.5,1.1s1.5-.4,1.5-1.1c0-.7-.6-1.1-1.5-1.1s-1.5.4-1.5,1.1ZM91.9,10.9h1.5v.9h-1.5v3.6h-1.1v-7.9h1.1v3.4Z"/>
            <path class="cls-1" d="M101.5,10.1h-5.2v-.9h2v-1.5h1.1v1.5h2v.9ZM103.4,17.5h-1v-3.2h-1.4c-.3.8-1.1,1.4-2,1.4s-2.2-1-2.2-2.5c0-1.5.9-2.5,2.2-2.5s2.2,1,2.2,2.5v.2h1.2v-1.5h-1.4v-.9h1.4v-3.3h1v9.8ZM97.6,13.2c0,.9.5,1.5,1.2,1.5s1.3-.6,1.3-1.5c0-.9-.5-1.5-1.3-1.5-.7,0-1.2.6-1.2,1.5ZM105.4,18h-1.1V7.5h1.1v10.5Z"/>
            <path class="cls-1" d="M110.9,9.1h-3v1.2h2.9v.9h-2.9v1.3c1.4,0,2.3,0,3.4-.3v.9c-1.1.2-2.1.3-3.8.3h-.7v-5.1h4.1v.9ZM115.4,18h-1.1v-2.7h-6v-.9h7.1v3.6ZM115.4,13.9h-1.1v-2.8h-1.3v2.7h-1v-6.1h1v2.5h1.3v-2.7h1.1v6.4Z"/>
            <path class="cls-1" d="M126.1,12.8h-9.6v-.9h9.6v.9ZM125,9.5c0,1.2-1.4,1.8-3.8,1.8s-3.8-.6-3.8-1.8,1.4-1.8,3.8-1.8,3.8.6,3.8,1.8ZM124.8,16.1h-6.1v.9h6.4v.9h-7.5v-2.6h6.1v-.8h-6.1v-.8h7.2v2.5ZM118.7,9.5c0,.6.9,1,2.6,1s2.6-.3,2.6-1-.9-1-2.6-1-2.6.4-2.6,1Z"/>
            <path class="cls-1" d="M130.7,9.6h2.8v-1.5h1.1v4.9h-4.9v-4.9h1.1v1.5ZM133.4,12.1v-1.6h-2.8v1.6h2.8ZM137.5,15.1h-5.7v1.9h5.8v.9h-7v-3.7h6.8v.9ZM137.4,10h1.5v.9h-1.5v2.7h-1.1v-6.1h1.1v2.5Z"/>
            <path class="cls-1" d="M144.8,12c0,2.3-1.1,3.7-2.7,3.7s-2.7-1.4-2.7-3.7c0-2.2,1.1-3.7,2.7-3.7s2.7,1.4,2.7,3.7ZM140.5,12c0,1.7.7,2.7,1.6,2.7s1.6-1,1.6-2.7-.7-2.7-1.6-2.7-1.6,1-1.6,2.7ZM147.4,11.6h1.7v.9h-1.7v5.4h-1.1V7.5h1.1v4.1Z"/>
            <path class="cls-1" d="M158.9,16.7h-9.6v-.9h4.2v-2.2h-3.1v-5.4h1.1v1.8h5.2v-1.8h1.1v5.4h-3.1v2.2h4.3v.9ZM156.7,12.7v-1.8h-5.2v1.8h5.2Z"/>
            <path class="cls-1" d="M164.7,14.7l-.6.9c-1-.6-1.7-1.6-2-2.9-.4,1.3-1.1,2.5-2.1,3.1l-.7-.8c1.5-.9,2.3-2.7,2.3-4.5v-2h1.1v1.9c0,1.7.7,3.5,2.1,4.3ZM166.3,17.5h-1.1v-5.4h-1.6v-.9h1.6v-3.5h1.1v9.8ZM168.4,18h-1.1V7.5h1.1v10.5Z"/>
            <path class="cls-1" d="M179.1,16.7h-9.6v-.9h2.3v-2.7c-.9-.5-1.4-1.2-1.4-2.2,0-1.7,1.6-2.7,3.9-2.7s3.9,1.1,3.9,2.7-.5,1.7-1.3,2.1v2.8h2.3v.9ZM171.5,10.8c0,1.1,1.1,1.9,2.8,1.9s2.8-.7,2.8-1.9-1.2-1.9-2.8-1.9-2.8.7-2.8,1.9ZM175.7,15.8v-2.3c-.4.1-.9.2-1.4.2s-1,0-1.4-.2v2.3h2.8Z"/>
            <path class="cls-1" d="M180,16.2c0-.5.4-.8.8-.8s.8.4.8.8-.4.8-.8.8-.8-.4-.8-.8ZM181.4,14.6h-1.2v-6c-.1,0,1.3,0,1.3,0v6Z"/>
          </g>
        </g>
      </g>
    </g>
  </g>
</svg>