<svg xmlns="http://www.w3.org/2000/svg" xmlns:xlink="http://www.w3.org/1999/xlink" width="84" height="84" viewBox="0 0 84 84">
  <defs>
    <clipPath id="clip-path">
      <rect id="사각형_278" data-name="사각형 278" width="84" height="84" transform="translate(0.415 0.415)" fill="none"/>
    </clipPath>
  </defs>
  <g id="그룹_1124" data-name="그룹 1124" transform="translate(-0.415 -0.415)">
    <path id="패스_268" data-name="패스 268" d="M5.785,15.535H30.764L30.6,18.71l-.582,4.763-.77,3.813-.7,5.029-1.493,3.066H8.271L5.943,18.922Z" transform="translate(1.226 3.291)" fill="#aad7f4"/>
    <path id="패스_269" data-name="패스 269" d="M9.628,44.944l14.5-.105.315,5.715-14.078.264Z" transform="translate(2.04 9.499)" fill="#aad7f4"/>
    <g id="그룹_1123" data-name="그룹 1123">
      <g id="그룹_1122" data-name="그룹 1122" clip-path="url(#clip-path)">
        <path id="패스_270" data-name="패스 270" d="M30.789,19.776a.728.728,0,0,1-.727-.727V16.291H6.761v2.758a.727.727,0,1,1-1.453,0V15.564a.726.726,0,0,1,.726-.726H30.789a.727.727,0,0,1,.727.726v3.485a.728.728,0,0,1-.727.727" transform="translate(1.125 3.144)" fill="#494949"/>
        <path id="패스_271" data-name="패스 271" d="M24.852,57.175H11.257a.728.728,0,0,1-.721-.628L5.314,18.39a.729.729,0,0,1,.721-.825H30.789a.727.727,0,0,1,.721.825l-.617,4.5-1.578,10.83a.741.741,0,0,1-.825.616.728.728,0,0,1-.614-.824l2.081-14.5H6.868l5.024,36.7h12.96a.726.726,0,1,1,0,1.452" transform="translate(1.124 3.721)" fill="#494949"/>
        <path id="패스_272" data-name="패스 272" d="M22.535,60.595H12.34a2.584,2.584,0,0,1-2.435-2.706V49.843a.727.727,0,1,1,1.453,0v8.046a1.145,1.145,0,0,0,.982,1.253h10.2a1.145,1.145,0,0,0,.982-1.253V53.022a.727.727,0,1,1,1.453,0v4.867a2.585,2.585,0,0,1-2.435,2.706" transform="translate(2.098 10.406)" fill="#494949"/>
        <path id="패스_273" data-name="패스 273" d="M25.431,32.754H8.264a.727.727,0,1,1,0-1.453H25.431a.727.727,0,1,1,0,1.453" transform="translate(1.597 6.631)" fill="#494949"/>
        <path id="패스_274" data-name="패스 274" d="M24.093,45.587H9.981a.727.727,0,0,1,0-1.453H24.093a.727.727,0,1,1,0,1.453" transform="translate(1.961 9.35)" fill="#494949"/>
        <path id="패스_275" data-name="패스 275" d="M19.1,58.965a.728.728,0,0,1-.727-.727,1.927,1.927,0,0,0-1.7-2.088,1.927,1.927,0,0,0-1.7,2.088.727.727,0,1,1-1.453,0A3.368,3.368,0,0,1,16.671,54.7a3.368,3.368,0,0,1,3.157,3.541.728.728,0,0,1-.727.727" transform="translate(2.864 11.588)" fill="#494949"/>
        <path id="패스_276" data-name="패스 276" d="M45.459,51.156H27.735a1.755,1.755,0,0,1-1.909-1.541V40.873a1.755,1.755,0,0,1,1.909-1.541H45.3" transform="translate(5.471 8.333)" fill="#aad7f4"/>
        <path id="패스_277" data-name="패스 277" d="M45.586,52.01H27.862a2.476,2.476,0,0,1-2.636-2.269V41a2.476,2.476,0,0,1,2.636-2.269H45.43a.727.727,0,1,1,0,1.453H27.862c-.64,0-1.183.374-1.183.816v8.74c0,.441.543.816,1.183.816H45.586a.727.727,0,1,1,0,1.453" transform="translate(5.344 8.206)" fill="#494949"/>
        <path id="패스_278" data-name="패스 278" d="M47.13,47.4l-20.7-.007V44.966L46.814,45Z" transform="translate(5.6 9.526)" fill="#fff"/>
        <path id="패스_279" data-name="패스 279" d="M24.439,31.282,22.828,32.4l-1.163,2.013-.135,3.177H46.214l.015-6.578Z" transform="translate(4.561 6.57)" fill="#aad7f4"/>
        <path id="패스_280" data-name="패스 280" d="M67.8,53.6H48.743a2.964,2.964,0,0,1-2.964-2.964V40.863A2.964,2.964,0,0,1,48.743,37.9H67.8" transform="translate(9.699 8.029)" fill="#aad7f4"/>
        <path id="패스_281" data-name="패스 281" d="M67.928,54.453H48.869a3.694,3.694,0,0,1-3.689-3.691v-9.77A3.694,3.694,0,0,1,48.869,37.3H67.928a.727.727,0,1,1,0,1.453H48.869a2.24,2.24,0,0,0-2.236,2.238v9.77A2.24,2.24,0,0,0,48.869,53H67.928a.727.727,0,1,1,0,1.453" transform="translate(9.572 7.902)" fill="#494949"/>
        <path id="패스_282" data-name="패스 282" d="M62.211,66.278h-13.2a7.56,7.56,0,0,1-7.551-7.552V35.758a12.082,12.082,0,0,1,3.022-8l5.647-5.269a.726.726,0,0,1,.5-.2H60.6a.721.721,0,0,1,.5.2l5.6,5.219c.017.015.033.033.05.05a12.081,12.081,0,0,1,3.024,8V58.725a7.56,7.56,0,0,1-7.552,7.552m-11.3-42.527-5.388,5.024a10.6,10.6,0,0,0-2.612,6.983V58.725a6.105,6.105,0,0,0,6.1,6.1h13.2a6.105,6.105,0,0,0,6.1-6.1V35.758a10.625,10.625,0,0,0-2.637-7.007l-5.361-5Z" transform="translate(8.784 4.724)" fill="#494949"/>
        <path id="패스_283" data-name="패스 283" d="M60.741,24.591H48.132l-1.121-9.349H61.862Z" transform="translate(9.96 3.229)" fill="#aad7f4"/>
        <path id="패스_284" data-name="패스 284" d="M60.868,25.445H48.259a.726.726,0,0,1-.722-.64l-1.121-9.349a.726.726,0,0,1,.722-.813H61.989a.728.728,0,0,1,.544.244.735.735,0,0,1,.178.57L61.591,24.8a.726.726,0,0,1-.722.64M48.9,23.991h11.32l.946-7.9H47.957Z" transform="translate(9.833 3.102)" fill="#494949"/>
        <path id="패스_285" data-name="패스 285" d="M60.714,16.445a.728.728,0,0,1-.727-.727V12.87H48.761v2.848a.727.727,0,1,1-1.454,0V12.143a.727.727,0,0,1,.727-.726h12.68a.727.727,0,0,1,.727.726v3.575a.728.728,0,0,1-.727.727" transform="translate(10.022 2.419)" fill="#494949"/>
        <path id="패스_286" data-name="패스 286" d="M50.833,12.865H43.666a.727.727,0,1,1,0-1.453h7.167a.727.727,0,1,1,0,1.453" transform="translate(9.097 2.418)" fill="#494949"/>
        <rect id="사각형_277" data-name="사각형 277" width="20.891" height="2.424" transform="translate(56.2 55.387)" fill="#fff"/>
        <path id="패스_287" data-name="패스 287" d="M46.292,38.212H21.7a.728.728,0,0,1-.727-.727V35.447a4.979,4.979,0,0,1,4.973-4.975H46.158a.727.727,0,0,1,0,1.454H25.949a3.523,3.523,0,0,0-3.519,3.52v1.312H46.292a.727.727,0,1,1,0,1.453" transform="translate(4.444 6.456)" fill="#494949"/>
        <path id="패스_288" data-name="패스 288" d="M43.3,63.424H30.588A9.6,9.6,0,0,1,21,53.831V36.486a.727.727,0,0,1,1.453,0V53.831a8.149,8.149,0,0,0,8.139,8.14H43.3A8.067,8.067,0,0,0,48.1,60.4a.728.728,0,0,1,.859,1.174A9.52,9.52,0,0,1,43.3,63.424" transform="translate(4.448 7.576)" fill="#494949"/>
      </g>
    </g>
  </g>
</svg>
