<svg id="그룹_1094" data-name="그룹 1094" xmlns="http://www.w3.org/2000/svg" xmlns:xlink="http://www.w3.org/1999/xlink" width="84" height="84" viewBox="0 0 84 84">
  <defs>
    <clipPath id="clip-path">
      <rect id="사각형_272" data-name="사각형 272" width="84" height="84" fill="none"/>
    </clipPath>
  </defs>
  <path id="패스_188" data-name="패스 188" d="M36.907,39.569H55.969L53.738,52.7l-14.769-.252Z" transform="translate(7.381 7.914)" fill="#aad7f4"/>
  <rect id="사각형_269" data-name="사각형 269" width="16.992" height="2.75" transform="translate(45.337 54.513)" fill="#fff"/>
  <g id="그룹_1093" data-name="그룹 1093">
    <g id="그룹_1092" data-name="그룹 1092" clip-path="url(#clip-path)">
      <path id="패스_189" data-name="패스 189" d="M58.8,30.713a.774.774,0,0,1-.774-.774v-2.08H36.082v2.08a.774.774,0,1,1-1.548,0V27.085a.773.773,0,0,1,.774-.773H58.8a.773.773,0,0,1,.774.773v2.854a.774.774,0,0,1-.774.774" transform="translate(6.937 4.389)" fill="#494949"/>
      <path id="패스_190" data-name="패스 190" d="M53.84,61.2H40.262a.772.772,0,0,1-.764-.653l-4.955-31.24a.773.773,0,0,1,.765-.9H58.8a.775.775,0,0,1,.765.9L54.6,60.546a.772.772,0,0,1-.764.653M40.923,59.652H53.178l4.71-29.694H36.215Z" transform="translate(6.937 4.997)" fill="#494949"/>
      <path id="패스_191" data-name="패스 191" d="M39.406,57.3a.774.774,0,0,1-.774-.774v-3.07a.774.774,0,1,1,1.548,0v3.07a.774.774,0,0,1-.774.774" transform="translate(8.125 12.03)" fill="#494949"/>
      <path id="패스_192" data-name="패스 192" d="M50.7,62.439H41.027a2.4,2.4,0,0,1-2.394-2.392V56.529a.773.773,0,1,1,1.546,0v3.517a.848.848,0,0,0,.847.846H50.7a.848.848,0,0,0,.846-.846V53.459a.773.773,0,0,1,1.546,0v6.588A2.4,2.4,0,0,1,50.7,62.439" transform="translate(8.125 12.03)" fill="#494949"/>
      <path id="패스_193" data-name="패스 193" d="M55.97,40.524H37.3a.773.773,0,1,1,0-1.546H55.97a.773.773,0,1,1,0,1.546" transform="translate(7.513 8.059)" fill="#494949"/>
      <path id="패스_194" data-name="패스 194" d="M53.551,50.4H38.826a.773.773,0,1,1,0-1.546H53.551a.773.773,0,1,1,0,1.546" transform="translate(7.956 10.918)" fill="#494949"/>
      <path id="패스_195" data-name="패스 195" d="M47.235,60.829a.774.774,0,0,1-.774-.774,1.532,1.532,0,0,0-3.063,0,.773.773,0,1,1-1.546,0,3.079,3.079,0,0,1,6.157,0,.774.774,0,0,1-.774.774" transform="translate(9.057 13.274)" fill="#494949"/>
      <path id="패스_196" data-name="패스 196" d="M11.151,43.512a.769.769,0,0,1-.667-.38l-4.91-8.319a.775.775,0,0,1,.281-1.064L39.24,14.534a.777.777,0,0,1,1.055.285l4.8,8.32a.773.773,0,0,1-.284,1.056L11.536,43.408a.759.759,0,0,1-.386.1M7.3,34.7l4.122,6.985L43.371,23.242l-4.029-6.98Z" transform="translate(-1.484 0.947)" fill="#494949"/>
      <path id="패스_197" data-name="패스 197" d="M12.93,29.3a5.606,5.606,0,0,1-1.454-.192,5.577,5.577,0,1,1,4.4-10.121h0l.288.181.013.009,6.49,4.043a.774.774,0,0,1-.023,1.327l-6.934,4a5.535,5.535,0,0,1-2.778.749m-.009-9.61a4.03,4.03,0,1,0,2.015,7.52l5.815-3.357-5.7-3.549a4.023,4.023,0,0,0-2.134-.614" transform="translate(-0.94 2.022)" fill="#494949"/>
      <path id="패스_198" data-name="패스 198" d="M19.141,26.478a.757.757,0,0,1-.375-.1.774.774,0,0,1-.4-.65l-.271-8.1v0a5.578,5.578,0,0,1,10.4-2.977,5.726,5.726,0,0,1-2.042,7.726l-6.932,4a.762.762,0,0,1-.386.1m.515-8.538.215,6.45,5.815-3.358a4.157,4.157,0,0,0,1.474-5.61,4.03,4.03,0,0,0-7.518,2.154l.012.338v.027" transform="translate(2.174 0.2)" fill="#494949"/>
      <path id="패스_199" data-name="패스 199" d="M46.786,62.9H12.813a.773.773,0,0,1-.773-.774V35.182a.773.773,0,0,1,1.546,0V61.357h33.2a.773.773,0,1,1,0,1.546" transform="translate(0.42 6.735)" fill="#494949"/>
      <path id="패스_200" data-name="패스 200" d="M41.949,34.279H15.475a.773.773,0,1,1,0-1.546H41.949a.773.773,0,1,1,0,1.546" transform="translate(1.191 6.249)" fill="#494949"/>
      <path id="패스_201" data-name="패스 201" d="M31.125,33.333V51.451L27.5,47.827l-3.623,3.624V33.333Z" transform="translate(3.85 6.423)" fill="#d40a32"/>
      <path id="패스_202" data-name="패스 202" d="M31.3,52.4a.77.77,0,0,1-.547-.227l-3.076-3.076L24.6,52.171a.773.773,0,0,1-1.321-.547V33.506a.773.773,0,0,1,.774-.773H31.3a.773.773,0,0,1,.774.773V51.624a.772.772,0,0,1-.774.774m-3.623-5.171a.772.772,0,0,1,.546.227l2.3,2.3V34.279h-5.7V49.756l2.3-2.3a.773.773,0,0,1,.547-.227" transform="translate(3.676 6.249)" fill="#494949"/>
      <path id="패스_203" data-name="패스 203" d="M50.5,26.221a.774.774,0,0,1-.774-.774V18.2a.774.774,0,0,1,1.548,0v7.247a.774.774,0,0,1-.774.774" transform="translate(11.34 1.814)" fill="#494949"/>
      <path id="패스_204" data-name="패스 204" d="M54.942,21.783H47.695a.773.773,0,1,1,0-1.546h7.247a.773.773,0,1,1,0,1.546" transform="translate(10.526 2.629)" fill="#494949"/>
      <path id="패스_205" data-name="패스 205" d="M47.707,14.374a1.686,1.686,0,1,1,1.686-1.686,1.686,1.686,0,0,1-1.686,1.686" transform="translate(9.204 2.2)" fill="#faf4a6"/>
      <path id="패스_206" data-name="패스 206" d="M47.828,15.214a2.405,2.405,0,1,1,2.4-2.4,2.409,2.409,0,0,1-2.4,2.4m0-3.372a.966.966,0,1,0,.966.967.968.968,0,0,0-.966-.967" transform="translate(9.084 2.081)" fill="#494949"/>
      <path id="패스_207" data-name="패스 207" d="M42.491,24.568a3.047,3.047,0,1,1,3.046-3.046,3.046,3.046,0,0,1-3.046,3.046" transform="translate(8.36 2.117)" fill="#faf4a6"/>
      <path id="패스_208" data-name="패스 208" d="M42.666,25.515a3.82,3.82,0,1,1,3.82-3.82,3.824,3.824,0,0,1-3.82,3.82m0-6.094A2.273,2.273,0,1,0,44.94,21.7a2.277,2.277,0,0,0-2.274-2.274" transform="translate(8.186 1.944)" fill="#494949"/>
      <rect id="사각형_270" data-name="사각형 270" width="7.171" height="9.451" transform="translate(18.521 27.625) rotate(-30.001)" fill="#d40a32"/>
      <path id="패스_209" data-name="패스 209" d="M21.641,33.866a.778.778,0,0,1-.672-.388l-4.726-8.185a.775.775,0,0,1,.284-1.056l6.21-3.587a.774.774,0,0,1,1.058.284l4.726,8.185a.775.775,0,0,1-.284,1.056l-6.21,3.587a.781.781,0,0,1-.386.1M17.97,25.19l3.952,6.845,4.871-2.813L22.84,22.377Z" transform="translate(1.608 2.718)" fill="#494949"/>
      <path id="패스_210" data-name="패스 210" d="M63.385,40.962h-8.4V37.648a1.507,1.507,0,0,1,1.506-1.506h5.387a1.507,1.507,0,0,1,1.506,1.506Z" transform="translate(12.862 7.237)" fill="#aad7f4"/>
      <path id="패스_211" data-name="패스 211" d="M63.559,41.909h-8.4a.772.772,0,0,1-.773-.773V37.822a2.282,2.282,0,0,1,2.279-2.279h5.388a2.282,2.282,0,0,1,2.28,2.279v3.315a.773.773,0,0,1-.774.773m-7.627-1.546h6.854V37.822a.733.733,0,0,0-.733-.733H56.664a.734.734,0,0,0-.733.733Z" transform="translate(12.688 7.063)" fill="#494949"/>
      <path id="패스_212" data-name="패스 212" d="M62.349,66.3h-5.5a3.3,3.3,0,0,1-3.291-3.291V41.337a2.068,2.068,0,0,1,2.067-2.065h7.949a2.067,2.067,0,0,1,2.066,2.065V63.012a3.3,3.3,0,0,1-3.29,3.291M55.624,40.818a.52.52,0,0,0-.52.518V63.012a1.748,1.748,0,0,0,1.744,1.745h5.5a1.747,1.747,0,0,0,1.742-1.745V41.337a.519.519,0,0,0-.518-.518Z" transform="translate(12.449 8.144)" fill="#494949"/>
      <rect id="사각형_271" data-name="사각형 271" width="10.534" height="8.275" transform="translate(66.779 60.117)" fill="#aad7f4"/>
      <path id="패스_213" data-name="패스 213" d="M64.865,58.341H54.331a.772.772,0,0,1-.773-.773V49.294a.773.773,0,0,1,.773-.774H64.865a.774.774,0,0,1,.774.774v8.275a.773.773,0,0,1-.774.773M55.1,56.795h8.988V50.066H55.1Z" transform="translate(12.449 10.823)" fill="#494949"/>
    </g>
  </g>
</svg>
