<svg id="그룹_1099" data-name="그룹 1099" xmlns="http://www.w3.org/2000/svg" xmlns:xlink="http://www.w3.org/1999/xlink" width="84" height="84" viewBox="0 0 84 84">
  <defs>
    <clipPath id="clip-path">
      <rect id="사각형_274" data-name="사각형 274" width="84" height="84" fill="none"/>
    </clipPath>
    <clipPath id="clip-path-2">
      <path id="패스_246" data-name="패스 246" d="M22.069,24.261a7.806,7.806,0,1,0,5.519-2.285,7.805,7.805,0,0,0-5.519,2.285" transform="translate(-19.784 -21.976)" fill="none"/>
    </clipPath>
  </defs>
  <g id="그룹_1096" data-name="그룹 1096">
    <g id="그룹_1095" data-name="그룹 1095" clip-path="url(#clip-path)">
      <path id="패스_214" data-name="패스 214" d="M21.127,54.364S19,39.025,26.179,33.3a36.124,36.124,0,0,1,13.7-7.061s5.234,1.522,7.729,3.469,7.913,9.008,7.913,9.008l1.583,7,4.747,2.131s2.8-9.678,2.314-12.418S60.751,20.826,52.9,17.234s-7.608-3.408-7.608-3.408a11.987,11.987,0,0,0-8.947-1.765c-4.87,1.156-13.573,4.442-17.53,9.678s-5.236,11.382-4.566,15.095,2.191,12.842,6.878,17.53" transform="translate(2.816 2.358)" fill="#aad7f4"/>
      <path id="패스_215" data-name="패스 215" d="M29.456,41.949a4.957,4.957,0,0,1-3.6-1.628.757.757,0,0,1,1.135-1,3.359,3.359,0,0,0,4.806.2.757.757,0,1,1,.926,1.2,5.3,5.3,0,0,1-3.272,1.229" transform="translate(5.135 7.813)" fill="#494949"/>
      <path id="패스_216" data-name="패스 216" d="M41.507,41.949a4.957,4.957,0,0,1-3.6-1.628.756.756,0,0,1,1.135-1,3.354,3.354,0,0,0,4.8.2.757.757,0,0,1,.926,1.2,5.3,5.3,0,0,1-3.271,1.229" transform="translate(7.545 7.813)" fill="#494949"/>
      <path id="패스_217" data-name="패스 217" d="M26.534,66.154a.756.756,0,0,1-.756-.756V55.954a.756.756,0,0,1,1.512,0V65.4a.756.756,0,0,1-.756.756" transform="translate(5.156 11.04)" fill="#494949"/>
      <path id="패스_218" data-name="패스 218" d="M38.043,66.378c-.628-.034-12.906-.944-17.6-12.36-1.914-5.4-.98-12.116-.256-15.642a13.406,13.406,0,0,1,2.129-4.951,23.735,23.735,0,0,1,15.521-10.1l.026,0c.046-.007.091-.032.137-.01a.553.553,0,0,1,.1.008v.007A23.785,23.785,0,0,1,53.661,33.425a13.364,13.364,0,0,1,2.128,4.951c.726,3.526,1.66,10.24-.241,15.606-4.708,11.46-16.985,12.362-17.5,12.4M37.95,24.831a22.206,22.206,0,0,0-14.388,9.455,11.886,11.886,0,0,0-1.89,4.4c-.695,3.371-1.594,9.774.185,14.795,4.321,10.512,16.056,11.383,16.175,11.39.032-.007,11.767-.876,16.1-11.426,1.765-4.985.865-11.388.17-14.759a11.844,11.844,0,0,0-1.889-4.4A22.239,22.239,0,0,0,37.95,24.831" transform="translate(3.862 4.661)" fill="#494949"/>
      <path id="패스_219" data-name="패스 219" d="M31.605,48.022a.754.754,0,0,1,.494.182,4.809,4.809,0,0,0,6.841.047.756.756,0,1,1,1.084,1.054,6.378,6.378,0,0,1-8.915.047.757.757,0,0,1,.5-1.33" transform="translate(6.17 9.604)" fill="#494949"/>
      <path id="패스_220" data-name="패스 220" d="M43.47,66.154a.756.756,0,0,1-.756-.756V55.954a.756.756,0,0,1,1.512,0V65.4a.756.756,0,0,1-.756.756" transform="translate(8.543 11.04)" fill="#494949"/>
      <path id="패스_221" data-name="패스 221" d="M21.892,56.047a.754.754,0,0,1-.619-.32C13.6,44.854,11.6,35.109,15.349,26.761c4.663-10.39,16.7-14.94,21.8-15.516,3.632-.406,6.466.311,8.424,2.14a9.5,9.5,0,0,1,2.648,7.542c-.251,5.648-8.98,6.341-9.352,6.368a.757.757,0,0,1-.108-1.511c.076,0,7.757-.618,7.946-4.925a8.032,8.032,0,0,0-2.167-6.368c-1.624-1.514-4.054-2.1-7.222-1.741-4.82.542-16.2,4.836-20.592,14.63-3.511,7.824-1.567,17.068,5.779,27.475a.756.756,0,0,1-.617,1.192" transform="translate(2.703 2.227)" fill="#494949"/>
      <path id="패스_222" data-name="패스 222" d="M51.321,55.485a.756.756,0,0,1-.457-1.36c.034-.026,3.349-2.6,5.773-8.852,3.1-8,1.873-16.457-3.283-22.614a25.092,25.092,0,0,0-13.265-8.317.757.757,0,0,1,.269-1.49,26.154,26.154,0,0,1,14.156,8.837C60.03,28.275,61.35,37.3,58.047,45.819c-2.593,6.7-6.125,9.4-6.274,9.515a.749.749,0,0,1-.452.151" transform="translate(7.894 2.568)" fill="#494949"/>
      <path id="패스_223" data-name="패스 223" d="M49.686,18.192a.756.756,0,0,1-.75-.67c-.048-.415-1.3-10.163-11.431-10.22H37.41a11.368,11.368,0,0,0-11.7,9.355.77.77,0,0,1-.868.628.756.756,0,0,1-.628-.865c.017-.107,1.816-10.631,13.2-10.631h.1c11.495.062,12.914,11.447,12.928,11.561a.756.756,0,0,1-.666.836.715.715,0,0,1-.088,0" transform="translate(4.841 1.158)" fill="#494949"/>
      <path id="패스_224" data-name="패스 224" d="M57.838,43.237a10.082,10.082,0,1,1-14.258,0,10.082,10.082,0,0,1,14.258,0" transform="translate(8.125 8.057)" fill="#fff"/>
      <path id="패스_225" data-name="패스 225" d="M50.833,61.325a10.834,10.834,0,1,1,7.664-3.17,10.8,10.8,0,0,1-7.664,3.17m0-20.155a9.321,9.321,0,1,0,6.6,2.726,9.3,9.3,0,0,0-6.6-2.726" transform="translate(8 7.932)" fill="#494949"/>
      <path id="패스_226" data-name="패스 226" d="M55.673,44.576a7.605,7.605,0,1,1-10.756,0,7.605,7.605,0,0,1,10.756,0" transform="translate(8.538 8.47)" fill="#fff"/>
      <path id="패스_227" data-name="패스 227" d="M50.42,58.441a8.362,8.362,0,1,1,5.912-14.274h0A8.362,8.362,0,0,1,50.42,58.441m0-15.211a6.85,6.85,0,1,0,4.843,2.006A6.8,6.8,0,0,0,50.42,43.23" transform="translate(8.412 8.344)" fill="#494949"/>
      <path id="패스_228" data-name="패스 228" d="M56.446,58.142a.753.753,0,0,1-.534-.222L54.1,56.1a.756.756,0,0,1,1.069-1.068l1.816,1.816a.757.757,0,0,1-.534,1.291" transform="translate(10.775 10.963)" fill="#494949"/>
      <path id="패스_229" data-name="패스 229" d="M57.727,56.861a.753.753,0,0,1-.534-.222l-1.818-1.818a.756.756,0,1,1,1.069-1.068l1.817,1.817a.757.757,0,0,1-.534,1.291" transform="translate(11.031 10.706)" fill="#494949"/>
      <path id="패스_230" data-name="패스 230" d="M64.84,64.115l-.384.384a2.348,2.348,0,0,1-3.32,0l-4.6-4.6a2.346,2.346,0,0,1,0-3.32l.383-.384a2.35,2.35,0,0,1,3.322,0l4.6,4.6a2.348,2.348,0,0,1,0,3.32" transform="translate(11.169 11.101)" fill="#d6d6d6"/>
      <path id="패스_231" data-name="패스 231" d="M62.914,66.009a3.214,3.214,0,0,1-2.28-.943L56.2,60.634a3.222,3.222,0,0,1,0-4.558l.211-.215a3.229,3.229,0,0,1,4.562,0l4.43,4.432a3.229,3.229,0,0,1,0,4.559h0l-.214.215a3.214,3.214,0,0,1-2.28.943M58.7,56.429a1.709,1.709,0,0,0-1.211.5l-.211.214a1.711,1.711,0,0,0,0,2.42L61.7,64a1.756,1.756,0,0,0,2.422,0l.214-.214a1.715,1.715,0,0,0,0-2.422l-4.43-4.432a1.713,1.713,0,0,0-1.211-.5m6.176,7.888h0Z" transform="translate(11.052 10.983)" fill="#494949"/>
      <path id="패스_232" data-name="패스 232" d="M52.061,47.429A1.868,1.868,0,1,1,50.193,49.3a1.867,1.867,0,0,1,1.868-1.868" transform="translate(10.039 9.486)" fill="#d40a32"/>
      <path id="패스_233" data-name="패스 233" d="M49.291,47.062A1.361,1.361,0,1,1,47.93,45.7a1.36,1.36,0,0,1,1.361,1.361" transform="translate(9.314 9.14)" fill="#d40a32"/>
      <path id="패스_234" data-name="패스 234" d="M48.577,51.264a.749.749,0,1,1-.749-.749.748.748,0,0,1,.749.749" transform="translate(9.416 10.103)" fill="#d40a32"/>
      <path id="패스_235" data-name="패스 235" d="M20.145,22.336a11.365,11.365,0,1,0,16.073,0,11.364,11.364,0,0,0-16.073,0" transform="translate(3.363 3.801)" fill="#fff"/>
      <path id="패스_236" data-name="패스 236" d="M28.306,42.614a12.117,12.117,0,0,1-8.572-20.688h0a12.122,12.122,0,1,1,8.572,20.689M20.8,22.995a10.61,10.61,0,1,0,15,0,10.625,10.625,0,0,0-15,0" transform="translate(3.238 3.676)" fill="#494949"/>
      <path id="패스_237" data-name="패스 237" d="M21.654,23.845a8.574,8.574,0,1,0,12.125,0,8.574,8.574,0,0,0-12.125,0" transform="translate(3.829 4.267)" fill="#fff"/>
      <path id="패스_238" data-name="패스 238" d="M27.84,39.356a9.321,9.321,0,1,1,6.6-2.728,9.3,9.3,0,0,1-6.6,2.728m0-17.137A7.813,7.813,0,1,0,33.369,24.5a7.792,7.792,0,0,0-5.528-2.286" transform="translate(3.703 4.141)" fill="#494949"/>
      <rect id="사각형_273" data-name="사각형 273" width="2.897" height="2.451" transform="translate(20.356 43.629) rotate(-45)" fill="#fff"/>
      <path id="패스_239" data-name="패스 239" d="M18.822,39.312a.748.748,0,0,1-.534-.222l-1.733-1.733a.754.754,0,0,1,0-1.068L18.6,34.24a.776.776,0,0,1,1.07,0l1.734,1.734a.756.756,0,0,1,0,1.07l-2.048,2.047a.757.757,0,0,1-.535.221m-.662-2.489.662.662.979-.978-.664-.664Z" transform="translate(3.267 6.805)" fill="#494949"/>
      <path id="패스_240" data-name="패스 240" d="M10.091,45.68l.856.856a2.348,2.348,0,0,0,3.32,0l5.608-5.609a2.346,2.346,0,0,0,0-3.32l-.854-.856a2.348,2.348,0,0,0-3.32,0l-5.609,5.609a2.348,2.348,0,0,0,0,3.32" transform="translate(1.881 7.213)" fill="#d6d6d6"/>
      <path id="패스_241" data-name="패스 241" d="M12.722,48.04a3.217,3.217,0,0,1-2.279-.941l-.686-.688h0a3.232,3.232,0,0,1,0-4.56l5.441-5.44a3.3,3.3,0,0,1,4.56,0l.684.686a3.217,3.217,0,0,1,0,4.559L15,47.1a3.212,3.212,0,0,1-2.28.943m-1.895-2.7.685.686a1.716,1.716,0,0,0,2.42,0l5.44-5.438a1.712,1.712,0,0,0,0-2.419l-.686-.688a1.751,1.751,0,0,0-2.419,0l-5.441,5.438a1.716,1.716,0,0,0,0,2.422" transform="translate(1.763 7.1)" fill="#494949"/>
    </g>
  </g>
  <g id="그룹_1098" data-name="그룹 1098" transform="translate(23.741 26.371)">
    <g id="그룹_1097" data-name="그룹 1097" clip-path="url(#clip-path-2)">
      <path id="패스_242" data-name="패스 242" d="M25.333,38.865a.767.767,0,0,1-.347-.085.758.758,0,0,1-.324-1.021l4.28-8.262-2.411-2.43a.759.759,0,0,1-.211-.652l.773-4.867a.757.757,0,0,1,1.5.236l-.713,4.488L30.4,28.821a.76.76,0,0,1,.136.882l-4.534,8.753a.757.757,0,0,1-.673.409" transform="translate(-18.825 -22.189)" fill="#f7b15a"/>
      <path id="패스_243" data-name="패스 243" d="M27.563,32.673a.732.732,0,0,1-.214-.032l-3.788-1.115a.753.753,0,0,1-.492-.451l-1.338-3.454a.757.757,0,0,1,1.412-.547l1.2,3.107,3.431,1.009a.757.757,0,0,1-.214,1.483" transform="translate(-19.404 -21.053)" fill="#f7b15a"/>
      <path id="패스_244" data-name="패스 244" d="M30.794,26.8a.756.756,0,0,1-.628-1.176l1.112-1.672a.757.757,0,0,1,1.259.84l-1.114,1.672a.757.757,0,0,1-.63.336" transform="translate(-17.733 -21.647)" fill="#f7b15a"/>
      <path id="패스_245" data-name="패스 245" d="M23.087,29.923a.756.756,0,0,1-.583-1.237l2.117-2.563a.757.757,0,0,1,1.168.962L23.67,29.648a.754.754,0,0,1-.583.275" transform="translate(-19.274 -21.201)" fill="#f7b15a"/>
    </g>
  </g>
</svg>
